<?xml version="1.0" standalone="no"?><!DOCTYPE svg PUBLIC "-//W3C//DTD SVG 1.1//EN" "http://www.w3.org/Graphics/SVG/1.1/DTD/svg11.dtd"><svg t="1652851043328" class="icon" viewBox="0 0 1024 1024" version="1.1" xmlns="http://www.w3.org/2000/svg" p-id="1739" xmlns:xlink="http://www.w3.org/1999/xlink" width="200" height="200"><defs><style type="text/css">@font-face { font-family: feedback-iconfont; src: url("//at.alicdn.com/t/font_1031158_u69w8yhxdu.woff2?t=1630033759944") format("woff2"), url("//at.alicdn.com/t/font_1031158_u69w8yhxdu.woff?t=1630033759944") format("woff"), url("//at.alicdn.com/t/font_1031158_u69w8yhxdu.ttf?t=1630033759944") format("truetype"); }
</style></defs><path d="M759.507582 487.910349c9.261944-12.130272 18.577101-24.223704 27.802206-36.380582 13.170974-17.369599 30.29191-28.418236 51.705616-32.855292 11.56029-2.393513 22.903639-5.758144 32.456203-12.939707 4.269233-3.207042 8.074909-7.469112 10.945283-11.982916 3.901867-6.138814 6.477528-13.103436 10.024308-19.48989 12.80463-23.064298 25.78834-46.027289 38.689161-69.042469 1.763157-3.137457 0.743944-7.93574-2.232854-10.140964-3.578502-2.64627-5.535063 0.302899-7.656377 2.422166-1.187035 1.186012-2.323928 2.430352-3.400446 3.717671-16.464997 19.657712-33.028231 39.23663-49.259914 59.086723-2.927679 3.580548-5.916756 4.308119-9.91379 3.443425-4.297886-0.928139-5.676279-3.542686-3.521197-7.346315 1.494027-2.635013 3.337002-5.131881 5.347798-7.40362 15.786545-17.825994 31.645744-35.586496 47.490617-53.356208 3.1262-3.504824 2.860141-6.094812-1.093914-9.978259-2.818185-2.765997-5.409197-2.588965-8.55177 0.934279-4.572132 5.128811-9.015328 10.367115-13.446243 15.615653-12.595876 14.937201-25.143657 29.91431-37.741579 44.846394-2.452865 2.90619-11.391445 4.592598-13.426801 2.183735-3.394307-4.021593 1.075495-6.455015 2.639107-9.419534 0.419556-0.797156 1.100054-1.460258 1.698688-2.152013 14.208607-16.369829 28.415167-32.737612 42.636053-49.097208 2.762927-3.176342 5.580089-6.307659 8.428973-9.529027-1.242294-1.645476-2.057869-2.946099-3.083222-4.051269-3.104711-3.335978-4.844332-3.231601-7.731078 0.308015-15.325034 18.815531-30.960129 37.393655-45.800116 56.580646-4.5312 5.851265-9.408277 6.374174-15.503089 5.269004-5.127787-0.929162-6.277984-3.862981-3.100618-8.125051 1.99954-2.683109 4.206812-5.255701 6.567579-7.624654 15.403828-15.470343 30.856775-30.886451 46.332235-46.283116 4.868891-4.839215 4.930289-4.78498 1.062192-10.387581-0.51677-0.753153-1.069355-1.488911-1.678222-2.170432-3.610224-4.044106-5.878894-4.181229-10.034541-0.64366-1.629103 1.384533-3.226484 2.803859-4.894474 4.142343-28.685319 23.02132-57.402361 46.013987-86.023212 69.116147-1.467421 1.189082-2.966565 3.25923-3.104711 5.02341-1.162476 14.912641-2.378164 29.833469-2.819209 44.778856-0.272199 9.336646-2.576685 17.10047-9.023514 24.329105-10.132778 11.347442-19.205411 23.638373-28.854165 35.690874 12.241812 14.902408 24.314779 29.592992 36.945447 44.970214C758.918157 488.976634 759.141238 488.390279 759.507582 487.910349z" p-id="1740"></path><path d="M928.179143 715.580628C804.432771 565.166897 680.689469 414.758282 556.999378 264.300548c-1.876744-2.286066-3.748371-3.623527-6.808056-3.703345-13.274328-0.343831-26.54047-1.052982-39.815821-1.283226-9.05319-0.153496-13.806447 4.858658-13.814634 13.935384-0.007163 20.150946-0.047072 40.308031 0.186242 60.45386 0.025583 2.328022 1.134847 5.078669 2.641153 6.885827 33.768081 40.606837 67.663052 81.109296 101.541651 121.631198 8.804527 10.522658 17.61417 21.032012 26.403347 31.521924 4.39203-2.165316 8.340969-4.549619 12.596899-6.083555 4.830005-1.743714 9.862625-3.313465 14.931061-3.892657 6.851035-0.785899 9.390881 1.335415 12.146645 7.770987 0.648776 1.512447 1.710968 2.87242 2.708692 4.208858 62.144362 83.115999 124.370589 166.165484 186.330756 249.417583 5.415336 7.27673 12.115945 11.838629 20.25123 14.810311 14.133905 5.166673 28.158317 5.254677 41.572838-2.175549C932.019611 749.960647 937.486112 726.896348 928.179143 715.580628z" p-id="1741"></path><path d="M686.238858 530.7132c-5.669116-6.739495-11.344373-13.470803-17.128099-20.338211-0.99977 1.184989-1.700735 1.983167-2.366907 2.814092-55.393611 69.082378-110.798479 138.155547-166.129668 207.291137-2.134617 2.669806-3.555989 5.91164-5.309936 8.887414l0 8.246825c4.323469 17.5804 18.315134 22.900569 33.640168 26.536376 1.310855 0.311085 2.619664 0.635473 3.930519 0.951675l7.325849 0c8.102538-0.694825 12.480242-6.235005 16.990976-12.21009 22.167882-29.359678 44.594661-58.524928 66.932412-87.756693 26.880207-35.178197 53.721529-70.38607 80.703043-105.48138 2.220574-2.879584 2.142803-4.589528-0.242524-7.264451C698.286242 545.326013 692.33367 537.957185 686.238858 530.7132z" p-id="1742"></path><path d="M409.712871 291.869441c-28.205389-22.701025-67.414389-34.395368-143.773498-34.395368L91.210863 257.474073l0 22.013363c50.217728 0 54.344722 4.126994 54.344722 53.658084l0 357.712031c0 49.530067-4.126994 53.657061-54.344722 53.657061l0 22.013363 176.104857 0 0-22.013363c-61.223387 0-63.97608-4.125971-63.97608-53.657061l0-153.403832 55.721069 0c71.542406 0 196.053188-8.253988 196.053188-142.397151C455.113897 349.653495 437.917236 314.570465 409.712871 291.869441zM259.060709 509.937015l-55.721069 0L203.33964 326.264808c0-34.395368 2.064009-41.274032 16.510022-41.274032l37.8347 0c48.841382 0 83.236749 7.566326 105.937774 26.826995 19.949354 18.574031 32.331359 47.467081 32.331359 82.550111C395.954519 492.051669 327.851445 509.937015 259.060709 509.937015z" p-id="1743"></path></svg>